<?xml version="1.0" encoding="UTF-8"?>
<svg id="Capa_1" xmlns="http://www.w3.org/2000/svg" viewBox="0 0 797.91 800">
  <defs>
    <style>
      .cls-1 {
        fill: #231f20;
      }

      .cls-2 {
        fill: #fff;
      }
    </style>
  </defs>
  <g>
    <path d="M92.82,759.32c-20.95,0-40.68-30.55-40.68-54.24,0-7.48-6.07-13.56-13.56-13.56s-13.56,6.07-13.56,13.56c0,37.61,29.61,81.36,67.8,81.36,7.48,0,13.56-6.07,13.56-13.56s-6.07-13.56-13.56-13.56Z"/>
    <path d="M697.15,27.12c20.31,0,46.51,30.05,46.51,61.97,0,7.48,6.07,13.56,13.56,13.56s13.56-6.07,13.56-13.56c0-44.95-36.47-89.08-73.63-89.08-7.48,0-13.56,6.07-13.56,13.56s6.07,13.56,13.56,13.56Z"/>
    <path d="M784.35,610.17c0-7.48-6.07-13.56-13.56-13.56s-13.56,6.07-13.56,13.56c0,70.96-58.17,135.59-122.03,135.59-7.48,0-13.56,6.07-13.56,13.56s6.07,13.56,13.56,13.56c79.44,0,149.15-76.03,149.15-162.71Z"/>
    <path d="M784.35,718.64c-7.48,0-13.56,6.07-13.56,13.56,0,15.69-18.62,40.68-40.68,40.68-7.48,0-13.56,6.07-13.56,13.56s6.07,13.56,13.56,13.56c36.52,0,67.8-37.29,67.8-67.8,0-7.48-6.07-13.56-13.56-13.56Z"/>
    <path d="M516.52,774.79c21.95-8.2,43.34-18.41,63.96-30.33,1.69-.57,3.27-1.46,4.66-2.71,31.2-18.55,60.54-41.14,86.94-67.54,42.22-42.22,73.9-90.62,94.9-141.37.26-.53.49-1.02.68-1.56,12.33-30.13,20.87-61.08,25.6-92.07.14-.85.37-1.67.34-2.52,4.54-31.2,5.19-62.37,1.94-92.8.05-1.03-.14-2.01-.33-3.02-8.22-70.93-37.8-137.41-89.59-189.19-9.33-9.34-19.43-18.05-30.64-26.62-8.2-10.77-17.11-21.13-26.89-30.9C588.64,34.66,506.77,1.9,417.58,1.9c-105.61,0-212.04,45.84-291.99,125.79C-27.72,281.02-42.77,515.42,92.03,650.24c9.49,9.49,19.74,18.05,30.31,26.14,8.76,11.53,17.67,21.83,27.21,31.38,59.5,59.48,141.37,92.24,230.56,92.24,45.69,0,91.54-8.62,135.32-24.83.38-.14.73-.22,1.08-.38ZM422.84,770.12l-33.74-33.74c20.52-3.67,40.83-9.02,60.77-15.95l36.08,36.08c-20.75,6.4-41.86,10.96-63.12,13.6ZM769.67,407.43l-32.89-32.89c.34-2.52.68-5.03.98-7.55.73-6.49,1.3-12.99,1.69-19.47.23-3.73.34-7.43.45-11.15.12-3.76.18-7.5.19-11.24,0-1.57.09-3.16.08-4.73l28.83,28.83c1.9,19.15,2.12,38.62.68,58.21ZM749.5,502.31l-36.31-36.31c1.88-4.88,3.7-9.79,5.4-14.71.75-2.16,1.42-4.33,2.13-6.49,1.87-5.78,3.61-11.57,5.22-17.37.61-2.21,1.27-4.42,1.84-6.64,1.18-4.56,2.21-9.13,3.21-13.69l34.39,34.39c-3.51,20.41-8.84,40.76-15.88,60.84ZM685.36,524.41c4.26-7.4,8.22-14.92,11.99-22.47.8-1.61,1.57-3.23,2.35-4.84.68-1.4,1.37-2.79,2.03-4.19l36.94,36.94c-5.68,12.95-12.16,25.68-19.34,38.2l-37.59-37.59c.87-1.45,1.76-2.89,2.6-4.35.33-.57.69-1.13,1.02-1.69ZM653.5,572.24c4.62-6.05,9.04-12.18,13.3-18.39l37.82,37.82c-7.55,11.28-15.65,22.33-24.47,33.06l-38.12-38.12c3.66-4.39,7.2-8.85,10.66-13.36.27-.35.56-.68.81-1.02ZM578.07,714.41l-37.93-37.93c11.53-7.39,22.77-15.35,33.67-23.86l38.22,38.22c-11,8.45-22.32,16.33-33.97,23.57ZM477.59,709.8c13.11-5.63,25.99-11.96,38.59-18.93l37.48,37.48c-12.85,6.81-26.01,12.85-39.36,18.16l-36.71-36.71ZM633.05,673.52l-38.31-38.31c6.75-5.98,13.41-12.09,19.82-18.52,3.21-3.21,6.28-6.52,9.38-9.8l38.2,38.2c-3.11,3.31-5.98,6.74-9.22,9.97-6.43,6.41-13.1,12.52-19.88,18.47ZM722.96,215.8c17.36,26.6,29.64,55.88,37.51,86.55l-23.19-23.19c-.27-2.14-.64-4.26-.95-6.37-.52-3.53-1.02-7.05-1.64-10.55-1.14-6.37-2.45-12.69-3.95-18.96-.68-2.81-1.45-5.56-2.2-8.35-1.29-4.83-2.68-9.63-4.19-14.39-.52-1.57-.87-3.19-1.4-4.75ZM144.77,146.87C219.65,71.99,319.1,29.03,417.58,29.03c81.95,0,157.02,29.94,211.38,84.3,7.61,7.61,14.67,15.57,21.23,23.82l3.53,4.66c.27.35.53.72.8,1.07,5.98,7.93,11.48,16.11,16.54,24.52l.33.57c4.96,8.3,9.48,16.83,13.55,25.53.19.39.35.81.53,1.21,3.85,8.33,7.28,16.83,10.32,25.46.26.76.53,1.51.79,2.26,2.64,7.73,4.87,15.59,6.87,23.53.46,1.84.99,3.66,1.42,5.52,1.75,7.47,3.11,15.04,4.3,22.64.41,2.63.85,5.25,1.19,7.91.95,7.24,1.6,14.54,2.05,21.87.19,3,.35,6.01.46,9.03.26,7.25.27,14.55.05,21.86-.09,3-.24,5.98-.41,8.98-.42,7.5-1.03,15.02-1.94,22.55-.31,2.63-.73,5.26-1.1,7.89-1.14,7.97-2.45,15.93-4.15,23.88-.39,1.87-.89,3.73-1.32,5.59-1.83,8-3.88,15.97-6.26,23.92-.35,1.19-.68,2.4-1.04,3.59-2.73,8.79-5.83,17.51-9.22,26.17-.5,1.3-.96,2.6-1.49,3.89-3.5,8.68-7.36,17.26-11.53,25.76-.65,1.33-1.27,2.66-1.94,3.97-4.26,8.47-8.87,16.84-13.78,25.11-.75,1.26-1.51,2.51-2.26,3.76-5.06,8.28-10.41,16.45-16.12,24.46-.79,1.1-1.6,2.18-2.4,3.28-5.91,8.12-12.11,16.11-18.68,23.89-.65.77-1.34,1.52-2.01,2.29-6.94,8.09-14.18,16.03-21.86,23.7-4.68,4.68-9.45,9.23-14.32,13.67-72.96,66.39-166.07,104.12-258.35,104.12-2.92,0-5.76-.24-8.66-.33-6.26-.16-12.52-.35-18.68-.85-3.93-.33-7.78-.87-11.66-1.33-5.44-.65-10.86-1.34-16.22-2.26-3.67-.62-7.31-1.37-10.93-2.13-5.61-1.18-11.16-2.49-16.66-3.97-3.21-.85-6.41-1.71-9.59-2.67-6.13-1.86-12.14-3.97-18.09-6.21-2.44-.91-4.92-1.72-7.32-2.7-8.23-3.34-16.3-6.98-24.14-11.04-1.41-.73-2.74-1.61-4.14-2.36-6.24-3.36-12.37-6.9-18.33-10.71-3.31-2.13-6.49-4.45-9.72-6.71-13.25-9.27-25.87-19.44-37.38-30.96C-13.02,506.82,2.03,289.61,144.77,146.87ZM220.97,727.19c3.69,1.14,7.42,2.2,11.16,3.21,5.86,1.59,11.77,2.98,17.75,4.24,1.45.31,2.86.75,4.31,1.03l18.74,18.74c-20.87-7.55-40.66-17.32-59.02-29.26,2.31.77,4.72,1.32,7.06,2.03ZM324.85,768l-26.54-26.54c4.83.33,9.71.43,14.59.57,3.25.08,6.43.45,9.69.45,10.9,0,21.8-.61,32.69-1.57l31.8,31.8c-2.33.04-4.65.18-6.97.18-18.86,0-37.3-1.78-55.27-4.88Z"/>
  </g>
  <path class="cls-2" d="M541.1,128.76h0c83.24,58.4,96.99,182.34,30.7,276.83l-46.61,66.44c-66.29,94.49-187.5,123.75-270.75,65.35h0c-83.24-58.4-96.99-182.34-30.7-276.83l46.61-66.44c66.29-94.49,187.5-123.75,270.75-65.35Z"/>
  <path d="M670.7,409.7c14.59-58.47,13.49-115.1-3.35-169.28-14.24-45.84-38.07-84.89-72.24-116.47-27.57-25.46-60.05-43.26-96.69-54.14-34.55-10.26-70.5-13.93-107.98-10.82-36.78,3.05-72.66,12.18-107.76,27.57-27.99,12.28-53.73,28.96-78.19,48.12-30.61,23.99-56.34,52.63-77.83,85.05-21.17,31.92-36.72,65.98-46.19,102.23-7.23,27.65-10.16,55.25-9.29,82.83.28,8.87,4.22,14.21,12.87,16.11,16.46,3.63,32.77,7.73,49.12,11.68,5.87,1.42,11.87,2.57,17.47,4.59,7.85,2.83,8.85,11.48,2.44,17.3-3.79,3.44-7.6,2.38-11.34,1.47-25.46-6.21-50.89-12.48-76.34-18.71-11.63-2.85-16.4,1.71-14.66,13.96.13.91.23,1.84.44,2.73,1.78,7.49,3.46,15.01,5.39,22.44,15.79,60.98,45.55,112.29,83.36,145.45,46.38,40.19,90.68,62.91,141.96,72.83,19.08,3.69,38.74,5.59,58.34,7.36,10.94.98,15.35-5.72,11.45-15.73-3.22-8.25-6.52-16.47-9.85-24.67-7.04-17.36-14.1-34.71-21.21-52.03-1.6-3.89-.37-7.31,2.54-10.5,2.94-3.23,6.37-3.7,10.01-2.86,3.94.9,5.65,4.01,7,7.4,8.19,20.51,16.41,41,24.44,61.6,2.5,6.41,6.88,10.09,13.94,9.7,7.8-.43,15.67-.95,23.47-2.39,66.93-12.35,124.81-45.95,174.79-96.2,47.17-47.41,78.17-103.61,93.88-166.59h.01ZM605.07,481.11c2.9,2.54,2.97,7.1.15,10.4-2.99,3.5-7.02,4.02-10.23,1.34-3-2.51-3.05-6.81-.14-10.34,2.79-3.38,7.25-4,10.22-1.4h0ZM652.9,377.53c1.04,1.39.91,3.73,1.3,5.65-.45.5-.9.99-1.35,1.48-2.07-.2-4.67.26-6.01-.82-.9-.72-.69-4.09.27-5.47,1.35-1.95,4.2-2.98,5.79-.84h0ZM659.28,336.05c3.39,2.82,3.63,7.79.56,11.41-3.38,3.99-8.26,4.75-11.65,1.82-3.2-2.76-3.19-8.12.02-11.91,2.91-3.43,7.83-4.01,11.07-1.31h0ZM656.68,293.79c2.17,1.87,1.93,4.3-.83,7.89-1.49-.13-4.32.43-5.47-.73-1.03-1.04-.98-4.42,0-5.96,1.37-2.17,4.17-3.03,6.29-1.19h0ZM608.65,219.79c.41-.03.83-.07,1.25-.1,2.2,6.95,4.73,13.79,6.54,20.89,4.89,19.21,6.37,39.19,5.05,59.73-.35,5.42-.63,5.57-5.7,5.12-16.99-1.47-33.5-4.28-48.45-11.74-6.72-3.36-12.49-7.78-14.81-15.36-1.16-3.79-1.23-8.05-1.87-12.63,14-.8,26.16-4.38,36.96-13.05,10.76-8.63,17.57-19.77,21.03-32.88h0ZM559.77,149.8c-7.39,8.76-17.43,10.39-25.16,4.71-6.6-4.85-7.83-15.53-2-23.67,9.04,6.31,18.07,12.61,27.16,18.95ZM418.72,79.82c2.09,1.78,1.88,4.15.04,6.4-2.08,2.54-4.75,2.09-6.28.48-1.1-1.16-.82-3.67-1.05-4.96,3.05-3.13,5.22-3.7,7.3-1.93h0ZM352.27,138.57c10.65-6.16,21.41-11.97,32.83-15.42,20.01,64.6,64.2,105.35,121.35,133.05.43-3.22.38-6.07,1.28-8.71.86-2.5,2.71-4.77,4.43-7.66-2.6-1.38-5.63-2.98-8.66-4.6-19.78-10.6-37.45-23.87-53.35-39.6-13.54-13.4-25.45-28.04-34.52-45.09-5.51-10.36-9.58-21.45-12.39-33.12,11.82-6.18,54.37-9.03,69.61-4.76-14.27,18.12-15.66,38.74-3.63,58.43,7.28,11.91,17.07,21.36,28.28,29.45,12.25,8.84,25.5,15.65,40.89,18.36,11.81,2.08,23.73,1.98,35.51-4.53,2.66-1.47,5.22-3.32,7.56-5.32,4.01-3.43,4.47-7.09,1.74-11.07-2.39-3.49-7.09-4.65-10.69-1.98-9.47,7.01-19.36,7.44-29.29,5.78-17.89-3-32.3-12.14-44.66-24.19-6.04-5.9-11.65-12.57-15.98-19.89-5.22-8.84-6.28-19.12-.44-29.89,3.52-6.5,10.33-10.22,16.93-8.85,5.87,1.22,11.55,3.03,17.38,4.6-9.56,19.41-4.17,37.88,8.85,46.64,13.2,8.88,29.19,6.26,46.64-8.71,3.28,4.16,6.68,8.25,9.85,12.53,8.57,11.53,13.17,24.65,10.71,40.43-2.69,17.23-15.68,30.22-32.63,33.2-10,1.76-19.06-.54-28.27-2.42-1-.21-2-.44-3.62-.78.95,6.34-2.21,10.94-7.75,15.29,3.89,1.08,7.01,2.1,10.23,2.79,2.06.44,2.92,1.19,2.74,3.66-1.25,16.68,5.25,29.15,17.43,38.25,13.71,10.24,30.38,14.07,47.33,17.17,6.2,1.13,12.48,1.98,19.54,3.09-1.99,7.23-3.8,14.41-5.97,21.52-1.29,4.24-3.07,8.39-4.74,12.54-2.07,5.17-2.13,5.13-7.02,3.95-21.69-5.24-42.18-13.15-61.96-22.57-22.53-10.75-43.68-23.59-63.73-38.18-24.19-17.6-45.68-38.01-65.11-60.8-13-15.26-24.84-31.36-35.41-48.56-9.31-15.14-17.2-31.09-23.65-47.93-1.14-2.99-.54-4.43,2.37-6.11h0ZM292.32,151.91c.9,1.43.2,4.01.22,6.08-2.21.22-4.9,1.26-6.45.41-1.07-.58-.54-3.78-.66-5.13,3.08-2.87,5.59-3.41,6.89-1.36h0ZM322.27,96.68c4.51,4.08,4.45,11.83-.12,17.06-4.73,5.41-11.99,6.38-16.7,2.24-4.77-4.19-4.68-11.72.21-17.27,4.29-4.87,12.38-5.85,16.61-2.02h0ZM242.35,146.19c3.79,3.33,3.65,9.58-.31,14.08-3.75,4.25-9.63,4.82-13.44,1.29-3.68-3.42-3.64-9.42.11-13.74,3.57-4.11,9.96-4.87,13.65-1.63h0ZM154.35,235.31c-1.02-1.19-.56-3.75-.92-7.14,3.34.08,5.62-.48,7.06.32,2.37,1.32,2.06,3.97.14,6.17-1.99,2.28-4.73,2.46-6.28.66h0ZM175.57,211.03c2.47-2.61,5.82-2.92,8.11-.73,2.22,2.12,2.13,6.15-.2,8.68-2.29,2.48-6.2,2.74-8.52.57-2.29-2.15-2.04-5.71.61-8.52h0ZM115.36,297.77c-1.79-1.88-1.47-4.07.26-6.09,1.88-2.19,4.54-2.48,5.85-.56.95,1.38,1.1,4.47.16,5.94-1.48,2.29-4.14,2.41-6.27.71h0ZM145.02,270.59c-4.07-3.53-4.04-9.49.08-14.34,3.73-4.39,9.93-5.24,13.95-1.91,4.07,3.36,4.1,10.14.06,14.8-4.09,4.72-9.67,5.29-14.1,1.46h0ZM275.05,132.54c-2.08-1.94-1.96-6.18.27-8.72,2.33-2.66,6.12-3.14,8.49-1.06,2.67,2.32,2.69,5.78.04,8.79-2.44,2.79-6.4,3.24-8.8,1h0ZM94.43,384.86c-2.85-2.6-2.79-6.77.13-10.04,2.76-3.09,7.46-3.76,10.09-1.43,2.92,2.59,2.75,7.27-.39,10.82-2.76,3.11-6.84,3.38-9.83.65ZM122.04,342.17c-6.06-5.35-6.02-16.27.09-23.27,6.13-7.03,16.73-8.35,22.97-2.84,6.36,5.61,6.37,16.33.03,23.51-6.53,7.4-16.4,8.51-23.09,2.6ZM200.56,277.32c-8.28-8.84-9.57-24.05-.74-35.86,11.07-14.8,23.33-28.93,36.28-42.15,9.5-9.7,24.88-10.08,35.02-3.23l-70.56,81.24h0ZM362.74,104.5c-2.23,2.27-6.46,2.53-8.68.53-2.21-1.99-2.15-6.17.11-8.68,2.45-2.72,6.3-3.04,8.75-.72,2.5,2.35,2.42,6.23-.19,8.88h0ZM132.95,405.67c-3.6-3.1-3.72-8.86-.27-12.91,3.48-4.08,9.18-4.83,12.81-1.69,3.66,3.18,3.9,8.91.52,12.88-3.69,4.33-9.18,5.06-13.06,1.72ZM330.95,683.79c-123.94-8.17-230-88.2-260.9-226.87,25.72,6.4,50.87,12.66,75.52,18.79-.34,6.8-.99,13.11-.9,19.31.22,15.01,5.82,27.88,12.69,39.94,13.98,24.55,33.61,43.57,56.89,58.89,14.28,9.4,29.58,16.73,46.85,20.19,10.49,2.11,21.22,2.29,32.23-.64,2.33-.62,4.61-1.6,7.35-2.57,10.06,24.24,20.09,48.42,30.27,72.95h0ZM194.97,500.66c-6.24,7.24-6.48,7.43-1.43,14.38,18.9,26.03,42.69,46.22,72.5,59.08,1.16.5,2.38.88,3.6,1.26,9.2,2.88,11.81,1.83,17.55-7.3,5.36,2.02,10.77,4.05,16.45,6.19-6.56,7.56-12.83,14.87-19.26,22.03-.74.82-2.44,1.1-3.64,1.12-15.26.16-28.88-4.35-41.64-10.99-27.91-14.53-50.44-34.95-66.32-62.5-5.18-8.99-8.53-18.84-10.08-29.49-.17-1.17.02-2.89.75-3.76,6.18-7.35,12.53-14.56,19.06-22.08,1.43,2.75,2.77,5.61,4.34,8.32,3.3,5.69,6.61,11.38,10.16,16.9,1.28,1.99,1.27,3.47-.64,5.23-.52.47-.93,1.07-1.39,1.61h0ZM373.13,617.57c-3.37-3.1-3.29-9.26.15-13.13,3.47-3.9,9.71-4.5,13.31-1.29,3.43,3.07,3.25,8.93-.39,13.01-3.8,4.27-9.32,4.86-13.07,1.41ZM484.56,509.69c-20.97,23.38-46.71,38.14-75.22,47.13-35.13,11.08-68.7,9.48-101.05-1.36-21.11-7.07-40.23-17.49-57.37-30.95-24.52-19.28-43.28-43.69-55.7-73.07-21.67-51.21-16.46-103.46,14.5-156.19,3.75-6.4,8.72-12.25,13.63-17.93,31.26-36.11,62.61-72.13,94.06-108.07,4.63-5.29,9.89-10.01,14.84-14.99,53.1,115.32,140.75,189.16,260.9,227.14-2.15,3.5-3.96,7.47-6.68,10.68-18.01,21.25-36.14,42.4-54.38,63.45-15.73,18.15-31.49,36.28-47.53,54.16h0ZM412.1,613.4c-2.09-.21-4.5.12-6.18-.77-1.99-1.04-1.48-5.03.55-6.77,2.24-1.93,4.87-2.32,6.25-.08.97,1.57.57,4.11.78,6.21-.46.46-.93.93-1.39,1.4h0ZM389.19,655.59c-2.31-1.86-2.15-6.22.32-9.01,2.22-2.52,6.16-2.92,8.57-.86,2.59,2.21,2.64,5.96.12,8.91-2.16,2.54-6.48,3-9.01.96ZM457.75,573.59c2.36-2.63,4.9-2.89,7.3-.75,2.49,2.22,2.63,5.61.33,8.18-2.19,2.45-6.16,2.87-8.3.88-2.19-2.04-1.91-5.44.66-8.31h0ZM420.43,634.84c-2.7-2.54-2.7-7.8.01-10.98,2.78-3.26,7.78-3.83,10.72-1.22,3.18,2.82,3.16,7.42-.06,11.05-2.92,3.29-7.83,3.82-10.66,1.16h0ZM539.93,511.03c-5.47,6.06-11.21,12.16-17.67,16.94-9.89,7.34-22.26,7.43-31.78,1.42l70.54-81.23c7.68,6.63,10.33,23.32,1.53,35.78-6.76,9.56-14.74,18.35-22.62,27.08h0ZM616.43,419.39c4.58-5.33,12.67-6.51,17.28-2.51,4.69,4.06,4.81,12.65.25,17.84-5.25,5.97-12.44,6.91-17.67,2.32-4.88-4.28-4.82-11.86.15-17.65h0ZM455.78,628.17c-2.33-1.98-2.4-6.56-.14-9.12,2.56-2.9,6.39-3.45,8.95-1.3,2.73,2.3,2.81,6.33.18,9.29-2.47,2.78-6.45,3.28-9,1.13h0ZM479.73,604.69c-1.64-1.55-1.59-5.92.08-7.87,1.94-2.25,5.89-2.68,7.94-.86,2.2,1.96,2.2,5.52,0,7.92-1.89,2.07-6.24,2.5-8.02.8h0ZM501.63,578.78c-4.09-3.94-3.84-10.22.61-15.12,4.05-4.46,10.66-5.03,14.61-1.28,3.93,3.73,3.8,10.43-.28,14.87-4.4,4.8-10.85,5.46-14.93,1.53h0ZM568.68,526.35c-1.74-1.78-1.52-5.95.42-8.13,2.15-2.42,5.94-2.64,8.11-.48,2.1,2.09,2.14,5.69.08,7.89-2.16,2.33-6.69,2.7-8.62.72h0Z"/>
  <path class="cls-1" d="M306.01,467.79c-7.97-5.92-14.06-13.86-16.58-24.53-.58-2.46-.49-5.38.08-7.99.75-3.44,3.28-5.59,6.69-5.94,3.25-.34,5.92.65,6.96,4.01,2.16,6.99,5.41,13.07,10.91,17.66,5.72,4.77,12.37,6.96,19.97,7,1.82,0,3.65-.12,5.45-.04,3.01.13,5.5,1.65,5.49,4.75,0,2.54-.9,6.09-2.63,7.72-2.23,2.1-5.7,3.51-8.62,3.86-10.07,1.18-19.25-1.06-27.73-6.49h0Z"/>
  <path d="M352.75,283.52c-14.28-12.29-37.2-9.01-51.19,7.31-13.29,15.5-12.84,38.85.99,50.72,13.84,11.89,37.05,8.59,50.69-7.18,13.85-16.04,13.64-38.71-.47-50.85h0ZM323.49,297.38c-2.59-2.25-2.62-6.45-.09-9.37s6.7-3.48,9.29-1.23,2.62,6.45.09,9.37-6.7,3.48-9.29,1.23Z"/>
  <path d="M463.53,379.68c-14.55-12.71-37.37-9.63-51.78,6.99-13.08,15.08-12.68,38.62.85,50.44,14.21,12.42,37.5,9.46,51.23-6.51,13.8-16.06,13.67-38.71-.3-50.92h0ZM433.31,392.76c-2.59-2.25-2.62-6.45-.09-9.37,2.54-2.92,6.7-3.48,9.29-1.23s2.62,6.45.09,9.37-6.7,3.48-9.29,1.23Z"/>
</svg>