<?xml version="1.0" standalone="no"?>
<svg xmlns:xlink="http://www.w3.org/1999/xlink" id="wave" style="transform:rotate(0deg); transition: 0.3s" viewBox="0 0 1440 590" version="1.1" xmlns="http://www.w3.org/2000/svg"><defs><linearGradient id="sw-gradient-0" x1="0" x2="0" y1="1" y2="0"><stop stop-color="rgba(78, 216, 227, 1)" offset="0%"/><stop stop-color="rgba(54, 231, 213, 1)" offset="100%"/></linearGradient></defs><path style="transform:translate(0, 0px); opacity:1" fill="url(#sw-gradient-0)" d="M0,294L34.3,302.2C68.6,310,137,327,206,302.2C274.3,278,343,212,411,179.7C480,147,549,147,617,155.2C685.7,163,754,180,823,228.7C891.4,278,960,359,1029,375.7C1097.1,392,1166,343,1234,269.5C1302.9,196,1371,98,1440,73.5C1508.6,49,1577,98,1646,98C1714.3,98,1783,49,1851,89.8C1920,131,1989,261,2057,269.5C2125.7,278,2194,163,2263,147C2331.4,131,2400,212,2469,204.2C2537.1,196,2606,98,2674,114.3C2742.9,131,2811,261,2880,261.3C2948.6,261,3017,131,3086,65.3C3154.3,0,3223,0,3291,49C3360,98,3429,196,3497,261.3C3565.7,327,3634,359,3703,343C3771.4,327,3840,261,3909,261.3C3977.1,261,4046,327,4114,310.3C4182.9,294,4251,196,4320,171.5C4388.6,147,4457,196,4526,179.7C4594.3,163,4663,82,4731,98C4800,114,4869,229,4903,285.8L4937.1,343L4937.1,490L4902.9,490C4868.6,490,4800,490,4731,490C4662.9,490,4594,490,4526,490C4457.1,490,4389,490,4320,490C4251.4,490,4183,490,4114,490C4045.7,490,3977,490,3909,490C3840,490,3771,490,3703,490C3634.3,490,3566,490,3497,490C3428.6,490,3360,490,3291,490C3222.9,490,3154,490,3086,490C3017.1,490,2949,490,2880,490C2811.4,490,2743,490,2674,490C2605.7,490,2537,490,2469,490C2400,490,2331,490,2263,490C2194.3,490,2126,490,2057,490C1988.6,490,1920,490,1851,490C1782.9,490,1714,490,1646,490C1577.1,490,1509,490,1440,490C1371.4,490,1303,490,1234,490C1165.7,490,1097,490,1029,490C960,490,891,490,823,490C754.3,490,686,490,617,490C548.6,490,480,490,411,490C342.9,490,274,490,206,490C137.1,490,69,490,34,490L0,490Z"/></svg>