<?xml version="1.0" standalone="no"?>
<svg xmlns:xlink="http://www.w3.org/1999/xlink" id="wave" style="transform:rotate(0deg); transition: 0.3s" viewBox="0 0 1440 490" version="1.1" xmlns="http://www.w3.org/2000/svg"><defs><linearGradient id="sw-gradient-0" x1="0" x2="0" y1="1" y2="0"><stop stop-color="rgba(62, 236.869, 243, 1)" offset="0%"/><stop stop-color="rgba(69.084, 182.463, 169.021, 1)" offset="100%"/></linearGradient></defs><path style="transform:translate(0, 0px); opacity:1" fill="url(#sw-gradient-0)" d="M0,98L40,155.2C80,212,160,327,240,359.3C320,392,400,343,480,334.8C560,327,640,359,720,343C800,327,880,261,960,269.5C1040,278,1120,359,1200,351.2C1280,343,1360,245,1440,179.7C1520,114,1600,82,1680,57.2C1760,33,1840,16,1920,32.7C2000,49,2080,98,2160,171.5C2240,245,2320,343,2400,318.5C2480,294,2560,147,2640,130.7C2720,114,2800,229,2880,269.5C2960,310,3040,278,3120,285.8C3200,294,3280,343,3360,343C3440,343,3520,294,3600,245C3680,196,3760,147,3840,179.7C3920,212,4000,327,4080,367.5C4160,408,4240,376,4320,302.2C4400,229,4480,114,4560,122.5C4640,131,4720,261,4800,302.2C4880,343,4960,294,5040,294C5120,294,5200,343,5280,343C5360,343,5440,294,5520,294C5600,294,5680,343,5720,367.5L5760,392L5760,490L5720,490C5680,490,5600,490,5520,490C5440,490,5360,490,5280,490C5200,490,5120,490,5040,490C4960,490,4880,490,4800,490C4720,490,4640,490,4560,490C4480,490,4400,490,4320,490C4240,490,4160,490,4080,490C4000,490,3920,490,3840,490C3760,490,3680,490,3600,490C3520,490,3440,490,3360,490C3280,490,3200,490,3120,490C3040,490,2960,490,2880,490C2800,490,2720,490,2640,490C2560,490,2480,490,2400,490C2320,490,2240,490,2160,490C2080,490,2000,490,1920,490C1840,490,1760,490,1680,490C1600,490,1520,490,1440,490C1360,490,1280,490,1200,490C1120,490,1040,490,960,490C880,490,800,490,720,490C640,490,560,490,480,490C400,490,320,490,240,490C160,490,80,490,40,490L0,490Z"/></svg>